<svg width="558" height="392" viewBox="0 0 558 392" fill="none" xmlns="http://www.w3.org/2000/svg">
<path d="M0 20.5C0 9.45431 8.9543 0.5 20 0.5H538C549.046 0.5 558 9.45431 558 20.5V371.5C558 382.546 549.046 391.5 538 391.5H20C8.95431 391.5 0 382.546 0 371.5V20.5Z" fill="#DDE1E6"/>
<path d="M0 19.5918C0 9.04769 5.50275 0.5 12.2907 0.5H545.709C552.497 0.5 558 9.04769 558 19.5918V372.408C558 382.952 552.497 391.5 545.709 391.5H12.2907C5.50275 391.5 0 382.952 0 372.408V19.5918Z" fill="#DDE1E6"/>
</svg>
